G75*
%MOIN*%
%OFA0B0*%
%FSLAX24Y24*%
%IPPOS*%
%LPD*%
%AMOC8*
5,1,8,0,0,1.08239X$1,22.5*
%
%ADD10C,0.0680*%
%ADD11R,0.0474X0.0671*%
%ADD12R,0.0671X0.0474*%
%ADD13R,0.0710X0.0789*%
%ADD14R,0.0592X0.0671*%
%ADD15R,0.0671X0.0592*%
%ADD16R,0.0926X0.0789*%
%ADD17R,0.0474X0.0631*%
%ADD18R,0.0631X0.0474*%
D10*
X004530Y004777D02*
X004530Y005377D01*
X005530Y005377D02*
X005530Y004777D01*
X006530Y004777D02*
X006530Y005377D01*
X007530Y005377D02*
X007530Y004777D01*
X008530Y004777D02*
X008530Y005377D01*
X009530Y005377D02*
X009530Y004777D01*
X010530Y004777D02*
X010530Y005377D01*
X011530Y005377D02*
X011530Y004777D01*
X012530Y004777D02*
X012530Y005377D01*
D11*
X012459Y009384D03*
X012459Y010124D03*
X008219Y010195D03*
X008219Y009455D03*
X007629Y007211D03*
X007629Y006471D03*
D12*
X005400Y007735D03*
X004660Y007735D03*
X012093Y008097D03*
X012833Y008097D03*
D13*
X010306Y007613D03*
X009203Y007613D03*
D14*
X012136Y007333D03*
X012806Y007333D03*
D15*
X013235Y009058D03*
X013235Y009727D03*
X009109Y009223D03*
X009109Y008554D03*
X008396Y007176D03*
X008396Y006506D03*
D16*
X005867Y008786D03*
X004587Y008786D03*
D17*
X006266Y007310D03*
X007014Y007310D03*
X006640Y006443D03*
X007034Y009160D03*
X006660Y010026D03*
X007408Y010026D03*
X009774Y010156D03*
X010522Y010156D03*
X010148Y009290D03*
X011069Y008963D03*
X011817Y008963D03*
X011443Y009829D03*
D18*
X010975Y006872D03*
X010975Y006124D03*
X010148Y006113D03*
X010148Y006861D03*
X009282Y006487D03*
X008255Y007998D03*
X008255Y008747D03*
X007388Y008372D03*
X005644Y010061D03*
X004778Y009687D03*
X004778Y010435D03*
X004672Y006896D03*
X004672Y006148D03*
X005538Y006522D03*
X011841Y006498D03*
M02*
