G75*
%MOIN*%
%OFA0B0*%
%FSLAX24Y24*%
%IPPOS*%
%LPD*%
%AMOC8*
5,1,8,0,0,1.08239X$1,22.5*
%
%ADD10C,0.0000*%
%ADD11C,0.0060*%
%ADD12C,0.0050*%
D10*
X004003Y004435D02*
X004003Y011128D01*
X013845Y011128D01*
X013845Y004435D01*
X004003Y004435D01*
D11*
X004280Y004577D02*
X004030Y004827D01*
X004030Y005327D01*
X004280Y005577D01*
X004780Y005577D01*
X005030Y005327D01*
X005280Y005577D01*
X005780Y005577D01*
X006030Y005327D01*
X006280Y005577D01*
X006780Y005577D01*
X007030Y005327D01*
X007280Y005577D01*
X007780Y005577D01*
X008030Y005327D01*
X008280Y005577D01*
X008780Y005577D01*
X009030Y005327D01*
X009280Y005577D01*
X009780Y005577D01*
X010030Y005327D01*
X010280Y005577D01*
X010780Y005577D01*
X011030Y005327D01*
X011280Y005577D01*
X011780Y005577D01*
X012030Y005327D01*
X012280Y005577D01*
X012780Y005577D01*
X013030Y005327D01*
X013030Y004827D01*
X012780Y004577D01*
X012280Y004577D01*
X012030Y004827D01*
X011780Y004577D01*
X011280Y004577D01*
X011030Y004827D01*
X010780Y004577D01*
X010280Y004577D01*
X010030Y004827D01*
X009780Y004577D01*
X009280Y004577D01*
X009030Y004827D01*
X008780Y004577D01*
X008280Y004577D01*
X008030Y004827D01*
X007780Y004577D01*
X007280Y004577D01*
X007030Y004827D01*
X006780Y004577D01*
X006280Y004577D01*
X006030Y004827D01*
X005780Y004577D01*
X005280Y004577D01*
X005030Y004827D01*
X004780Y004577D01*
X004280Y004577D01*
X006080Y006616D02*
X006300Y006616D01*
X006080Y006616D02*
X006080Y006936D01*
X006980Y006616D02*
X007200Y006616D01*
X007200Y006936D01*
X009455Y006827D02*
X009455Y007047D01*
X009775Y007047D01*
X009455Y006147D02*
X009455Y005927D01*
X009775Y005927D01*
X011348Y005938D02*
X011668Y005938D01*
X011668Y006158D01*
X011668Y006838D02*
X011668Y007058D01*
X011348Y007058D01*
X010708Y009463D02*
X010488Y009463D01*
X010708Y009463D02*
X010708Y009783D01*
X009808Y009463D02*
X009588Y009463D01*
X009588Y009783D01*
X007594Y009653D02*
X007594Y009333D01*
X007374Y009333D01*
X006694Y009333D02*
X006474Y009333D01*
X006474Y009653D01*
X005471Y009721D02*
X005471Y009501D01*
X005151Y009501D01*
X005471Y010401D02*
X005471Y010621D01*
X005151Y010621D01*
D12*
X004295Y004027D02*
X004370Y003952D01*
X004520Y003952D01*
X004595Y004027D01*
X004595Y004328D01*
X004520Y004403D01*
X004370Y004403D01*
X004295Y004328D01*
X004295Y004252D01*
X004370Y004177D01*
X004595Y004177D01*
X012295Y005752D02*
X012595Y005752D01*
X012445Y005752D02*
X012445Y006203D01*
X012295Y006052D01*
M02*
